<?xml version="1.0" encoding="UTF-8" standalone="no"?><!DOCTYPE svg PUBLIC "-//W3C//DTD SVG 1.1//EN" "http://www.w3.org/Graphics/SVG/1.1/DTD/svg11.dtd"><svg width="100%" height="100%" viewBox="0 0 144 44" version="1.1" xmlns="http://www.w3.org/2000/svg" xmlns:xlink="http://www.w3.org/1999/xlink" xml:space="preserve" xmlns:serif="http://www.serif.com/" style="fill-rule:evenodd;clip-rule:evenodd;stroke-linejoin:round;stroke-miterlimit:2;"><path d="M62.776,30.362l-2.226,8.638l-1.26,0l-2.73,-9.8l1.008,0l2.352,8.638l2.24,-8.638l1.26,0l2.38,8.652l2.24,-8.652l0.98,0l-2.59,9.8l-1.26,0l-2.394,-8.638Zm8.13,1.638l0.924,0l0,7l-0.924,0l0,-7Zm0.462,-1.232c-0.187,0 -0.345,-0.061 -0.476,-0.182c-0.121,-0.131 -0.182,-0.289 -0.182,-0.476c0,-0.187 0.061,-0.341 0.182,-0.462c0.131,-0.131 0.289,-0.196 0.476,-0.196c0.187,0 0.341,0.065 0.462,0.196c0.131,0.121 0.196,0.275 0.196,0.462c0,0.187 -0.065,0.345 -0.196,0.476c-0.121,0.121 -0.275,0.182 -0.462,0.182Zm5.136,4.97l-1.232,1.456l0,1.806l-0.924,0l0,-9.8l0.924,0l0,6.734l3.248,-3.934l1.148,0l-2.548,3.066l2.828,3.934l-1.148,0l-2.296,-3.262Zm5.121,-3.738l0.924,0l0,7l-0.924,0l0,-7Zm0.462,-1.232c-0.187,0 -0.345,-0.061 -0.476,-0.182c-0.121,-0.131 -0.182,-0.289 -0.182,-0.476c0,-0.187 0.061,-0.341 0.182,-0.462c0.131,-0.131 0.289,-0.196 0.476,-0.196c0.187,0 0.341,0.065 0.462,0.196c0.131,0.121 0.196,0.275 0.196,0.462c0,0.187 -0.065,0.345 -0.196,0.476c-0.121,0.121 -0.275,0.182 -0.462,0.182Z" style="fill:#fff;fill-rule:nonzero;"/><path d="M57.54,6.6l5.28,0c2.068,0 3.571,0.44 4.51,1.32c0.953,0.865 1.43,2.119 1.43,3.762c0,1.54 -0.499,2.772 -1.496,3.696c-0.997,0.924 -2.479,1.386 -4.444,1.386l-2.64,0l0,5.236l-2.64,0l0,-15.4Zm2.64,2.332l0,5.5l2.64,0c1.056,0 1.848,-0.249 2.376,-0.748c0.528,-0.499 0.792,-1.166 0.792,-2.002c0,-0.88 -0.257,-1.555 -0.77,-2.024c-0.499,-0.484 -1.298,-0.726 -2.398,-0.726l-2.64,0Zm10.551,-2.332l9.9,0l0,2.332l-7.26,0l0,3.982l5.94,0l0,2.332l-5.94,0l0,4.422l7.26,0l0,2.332l-9.9,0l0,-15.4Zm15.853,5.28l-0.902,-2.332l0,12.452l-2.64,0l0,-15.4l3.96,0l3.432,8.338l3.432,-8.338l3.916,0l0,15.4l-2.64,0l0,-12.474l-0.924,2.354l-2.486,6.05l-2.64,0l-2.508,-6.05Zm20.539,10.318c-1.027,0 -1.966,-0.161 -2.816,-0.484c-0.836,-0.337 -1.555,-0.814 -2.156,-1.43c-0.587,-0.631 -1.042,-1.401 -1.364,-2.31c-0.323,-0.909 -0.484,-1.943 -0.484,-3.102l0,-1.144c0,-1.144 0.161,-2.171 0.484,-3.08c0.337,-0.909 0.799,-1.672 1.386,-2.288c0.601,-0.631 1.32,-1.115 2.156,-1.452c0.85,-0.337 1.782,-0.506 2.794,-0.506c1.026,0 1.958,0.169 2.794,0.506c0.85,0.323 1.569,0.799 2.156,1.43c0.601,0.631 1.063,1.401 1.386,2.31c0.322,0.895 0.484,1.921 0.484,3.08l0,1.144c0,1.144 -0.169,2.171 -0.506,3.08c-0.323,0.909 -0.785,1.679 -1.386,2.31c-0.587,0.631 -1.306,1.115 -2.156,1.452c-0.836,0.323 -1.76,0.484 -2.772,0.484Zm0,-2.464c1.202,0 2.178,-0.403 2.926,-1.21c0.748,-0.821 1.122,-2.039 1.122,-3.652l0,-1.144c0,-0.792 -0.103,-1.489 -0.308,-2.09c-0.191,-0.616 -0.47,-1.122 -0.836,-1.518c-0.352,-0.411 -0.778,-0.719 -1.276,-0.924c-0.499,-0.22 -1.042,-0.33 -1.628,-0.33c-1.218,0 -2.2,0.411 -2.948,1.232c-0.734,0.807 -1.1,2.017 -1.1,3.63l0,1.144c0,1.599 0.374,2.809 1.122,3.63c0.762,0.821 1.738,1.232 2.926,1.232Zm19.249,-4.488l-7.26,0l0,6.754l-2.64,0l0,-15.4l2.64,0l0,6.314l7.26,0l0,-6.314l2.64,0l0,15.4l-2.64,0l0,-6.754Zm4.509,-8.646l12.1,0l0,2.332l-4.73,0l0,13.068l-2.64,0l0,-13.068l-4.73,0l0,-2.332Z" style="fill:#fff;fill-rule:nonzero;"/><path d="M40,0c2.208,0 4,1.792 4,4l0,36c0,2.208 -1.792,4 -4,4l-36,0c-2.208,0 -4,-1.792 -4,-4l0,-36c0,-2.208 1.792,-4 4,-4l36,0Zm-16.008,9l-3.984,0c-1.599,0 -2.908,1.267 -2.985,2.854c-2.741,0.974 -5.197,2.763 -6.973,5.096c-2,2.628 -3.058,5.758 -3.058,9.05l0,3.172c-1.159,0.413 -1.992,1.524 -1.992,2.828c0,1.654 1.341,3 2.988,3l28.024,0c1.647,0 2.988,-1.346 2.988,-3c0,-1.304 -0.833,-2.415 -1.992,-2.828l0,-3.172c0,-3.293 -1.058,-6.422 -3.058,-9.05c-1.776,-2.333 -4.232,-4.122 -6.973,-5.096c-0.077,-1.587 -1.386,-2.854 -2.985,-2.854Zm12.02,24l-28.024,0c-0.549,0 -0.996,-0.449 -0.996,-1c0,-0.551 0.447,-1 0.996,-1l28.024,0c0.549,0 0.996,0.449 0.996,1c0,0.551 -0.447,1 -0.996,1Zm-17,-21c0,-0.551 0.447,-1 0.996,-1l3.984,0c0.549,0 0.996,0.449 0.996,1l0,10c0,0.552 0.446,1 0.996,1c0.55,0 0.996,-0.448 0.996,-1l0,-8.004c0.699,0.292 1.365,0.643 1.993,1.045l0,4.959c0,0.552 0.446,1 0.996,1c0.55,0 0.996,-0.448 0.996,-1l0,-3.39c2.516,2.408 4.051,5.784 4.051,9.39l0,3l-26.032,0l0,-3c0,-3.606 1.535,-6.982 4.051,-9.39l0,3.39c0,0.552 0.446,1 0.996,1c0.55,0 0.996,-0.448 0.996,-1l0,-4.959c0.628,-0.402 1.294,-0.753 1.992,-1.045l0,8.004c0,0.552 0.446,1 0.997,1c0.55,0 0.996,-0.448 0.996,-1l0,-10Z" style="fill:#fff;"/></svg>