<svg width="14" height="12" viewBox="0 0 14 12" fill="none" xmlns="http://www.w3.org/2000/svg">
<path d="M7.00091 0C3.135 0 0.00181452 2.49375 0.00181452 5.57143C0.00181452 6.84643 0.545885 8.01429 1.44811 8.95446C1.04074 10.0098 0.193196 10.9045 0.179526 10.9152C-0.0009195 11.1027 -0.0501319 11.3759 0.0537609 11.6116C0.157654 11.8473 0.395514 12 0.657979 12C2.3394 12 3.6654 11.3116 4.461 10.7598C5.25113 11.0036 6.10415 11.1429 7.00091 11.1429C10.8668 11.1429 14 8.64911 14 5.57143C14 2.49375 10.8668 0 7.00091 0ZM7.00091 9.85714C6.27092 9.85714 5.54914 9.74732 4.85744 9.53304L4.23681 9.34018L3.70368 9.70982C3.31271 9.98036 2.77685 10.283 2.13162 10.4866C2.3312 10.1625 2.52532 9.79821 2.67569 9.40982L2.96549 8.65714L2.40228 8.07321C1.90743 7.55625 1.31414 6.70179 1.31414 5.57143C1.31414 3.20893 3.86499 1.28571 7.00091 1.28571C10.1368 1.28571 12.6877 3.20893 12.6877 5.57143C12.6877 7.93393 10.1368 9.85714 7.00091 9.85714Z" fill="#3598DC"/>
</svg>
