<svg width="22" height="22" viewBox="0 0 22 22" fill="none" xmlns="http://www.w3.org/2000/svg">
<path d="M20.0355 19.2858C20.53 19.2858 20.9585 19.1225 21.3228 18.8001L15.0898 12.5669C14.9403 12.6739 14.7953 12.7781 14.6584 12.8771C14.1919 13.2208 13.8134 13.4889 13.5227 13.6811C13.232 13.8737 12.8453 14.07 12.3625 14.2704C11.8795 14.4711 11.4295 14.5711 11.012 14.5711H10.9998H10.9875C10.57 14.5711 10.12 14.4712 9.63697 14.2704C9.15394 14.07 8.76722 13.8737 8.47684 13.6811C8.18618 13.4889 7.80781 13.2208 7.34113 12.8771C7.21107 12.7818 7.06684 12.6771 6.91091 12.5652L0.676758 18.8001C1.04099 19.1225 1.46977 19.2858 1.96426 19.2858H20.0355V19.2858Z" fill="#CCCCCC"/>
<path d="M1.24009 8.64182C0.773682 8.33087 0.36008 7.97475 0 7.57361V17.0569L5.4937 11.5632C4.39465 10.7959 2.97857 9.82324 1.24009 8.64182Z" fill="#CCCCCC"/>
<path d="M20.7722 8.64182C19.1 9.77363 17.6787 10.748 16.5083 11.5654L21.9998 17.0571V7.57361C21.6477 7.96668 21.2386 8.32257 20.7722 8.64182Z" fill="#CCCCCC"/>
<path d="M20.0353 2H1.96416C1.33371 2 0.849013 2.21289 0.509464 2.63824C0.169635 3.06378 0 3.59597 0 4.23421C0 4.74975 0.225115 5.30834 0.675144 5.91015C1.12517 6.51172 1.60404 6.98424 2.11151 7.32794C2.38971 7.52449 3.22865 8.10773 4.62835 9.07745C5.38394 9.60105 6.04103 10.0574 6.60569 10.4513C7.087 10.7866 7.50208 11.077 7.84478 11.3181C7.88412 11.3457 7.94599 11.3899 8.02812 11.4486C8.11659 11.5122 8.22855 11.5928 8.36667 11.6925C8.63264 11.8849 8.8536 12.0404 9.02959 12.1592C9.20534 12.278 9.41827 12.4108 9.66807 12.5581C9.91767 12.7053 10.1531 12.816 10.374 12.8896C10.595 12.9632 10.7996 13.0001 10.9878 13.0001H11.0001H11.0123C11.2005 13.0001 11.4051 12.9632 11.6261 12.8896C11.847 12.816 12.0823 12.7056 12.3321 12.5581C12.5816 12.4108 12.7943 12.2777 12.9706 12.1592C13.1466 12.0404 13.3675 11.885 13.6335 11.6925C13.7714 11.5928 13.8833 11.5121 13.9718 11.4488C14.054 11.3899 14.1158 11.3459 14.1554 11.3181C14.4224 11.1323 14.8384 10.8431 15.3977 10.4547C16.4156 9.74748 17.9145 8.70663 19.9009 7.32794C20.4983 6.91066 20.9975 6.40711 21.3986 5.818C21.799 5.22889 21.9998 4.61095 21.9998 3.96436C21.9998 3.42414 21.8051 2.96189 21.4167 2.57689C21.0278 2.19236 20.5673 2 20.0353 2Z" fill="#CCCCCC"/>
</svg>
