<svg width="512" height="512" viewBox="0 0 512 512" fill="none" xmlns="http://www.w3.org/2000/svg">
<path d="M510.596 226.896L465.182 417.653C459.808 440.231 440.07 456 417.183 456L157.454 456L157.454 466C157.454 477.046 148.5 486 137.454 486L20 486C8.954 486 7.82784e-07 477.046 1.74846e-06 466L2.89367e-05 155.003C2.99023e-05 143.957 8.95403 135.003 20 135.003L137.455 135.003C148.501 135.003 157.455 143.957 157.455 155.003L157.455 165.003L203.481 165.003C206.108 165.003 208.633 163.799 210.41 161.7L310.408 43.503C319.818 32.379 333.501 26 347.948 26C380.838 26 404.71 57.978 395.461 90.253L374.04 165.003L462.596 165.003C477.66 165.003 491.702 171.842 501.121 183.768C510.762 195.973 514.215 211.692 510.596 226.896ZM117.455 175.003L39.999 175.003L39.999 446L117.455 446C117.455 439.453 117.455 181.953 117.455 175.003ZM469.733 208.562C468.683 207.233 466.36 205.003 462.596 205.003L367.131 205.003C344.064 205.003 327.363 182.682 333.81 160.189L357.009 79.233C359.998 68.803 347.704 61.345 340.942 69.339L240.945 187.536C231.553 198.637 217.898 205.003 203.48 205.003L157.454 205.003L157.454 416L417.183 416C421.467 416 425.203 412.871 426.271 408.389L471.684 217.631C472.452 214.409 471.74 211.103 469.733 208.562Z" fill="#27AE60"/>
</svg>
