<svg width="22" height="22" viewBox="0 0 22 22" fill="none" xmlns="http://www.w3.org/2000/svg">
<path d="M11.1376 0.00458538C6.66938 -0.14598 3 3.43088 3 7.86462C3 12.8964 7.82931 16.5482 10.5361 21.7998C10.6736 22.0665 11.0574 22.0668 11.1953 21.8002C13.6441 17.0748 17.8292 13.9061 18.6048 9.35366C19.4079 4.64278 15.9141 0.165603 11.1376 0.00458538ZM10.8654 11.9841C8.59001 11.9841 6.74542 10.1397 6.74542 7.86462C6.74542 5.58956 8.59006 3.74512 10.8654 3.74512C13.1407 3.74512 14.9853 5.58956 14.9853 7.86462C14.9853 10.1397 13.1407 11.9841 10.8654 11.9841Z" fill="#CCCCCC"/>
</svg>
