<svg width="22" height="22" viewBox="0 0 22 22" fill="none" xmlns="http://www.w3.org/2000/svg">
<path d="M21.5068 17.4009L18.1092 13.9953C17.4325 13.3198 16.3118 13.3403 15.6115 14.0424L13.8998 15.7576C13.7917 15.6979 13.6797 15.6355 13.562 15.5693C12.4811 14.969 11.0017 14.1463 9.44491 12.5848C7.88351 11.0201 7.06185 9.535 6.46109 8.45093C6.3977 8.33608 6.33696 8.22534 6.27698 8.12019L7.42578 6.97049L7.99058 6.40372C8.69196 5.70056 8.7113 4.57766 8.03615 3.90015L4.63859 0.494138C3.96344 -0.182415 2.84226 -0.161891 2.14088 0.541269L1.18334 1.5065L1.2095 1.53253C0.888423 1.94315 0.62012 2.41674 0.420458 2.92745C0.236406 3.41358 0.121817 3.87748 0.0694204 4.34232C-0.379205 8.06995 1.32036 11.4767 5.93277 16.0997C12.3085 22.4894 17.4465 22.0067 17.6682 21.9831C18.1509 21.9253 18.6136 21.8097 19.0838 21.6267C19.5889 21.4289 20.0611 21.1604 20.4705 20.8393L20.4915 20.8579L21.4615 19.9058C22.1614 19.2028 22.1816 18.0795 21.5068 17.4009Z" fill="#CCCCCC"/>
</svg>
