<svg width="14" height="14" viewBox="0 0 14 14" fill="none" xmlns="http://www.w3.org/2000/svg">
<path d="M7 0C3.14004 0 0 3.14004 0 7C0 10.86 3.14004 14 7 14C10.86 14 14 10.86 14 7C14 3.14004 10.86 0 7 0ZM7 13.4615C3.43727 13.4615 0.538462 10.5627 0.538462 7C0.538462 3.43727 3.43727 0.538462 7 0.538462C10.5627 0.538462 13.4615 3.43727 13.4615 7C13.4615 10.5627 10.5627 13.4615 7 13.4615Z" fill="#888888"/>
<path d="M7.00019 9.96155C6.8513 9.96155 6.73096 10.0819 6.73096 10.2308V10.7692C6.73096 10.9181 6.8513 11.0385 7.00019 11.0385C7.14907 11.0385 7.26942 10.9181 7.26942 10.7692V10.2308C7.26942 10.0819 7.14907 9.96155 7.00019 9.96155Z" fill="#888888"/>
<path d="M7.03046 2.42337C7.02023 2.42337 7.01 2.4231 6.9995 2.4231C6.42981 2.4231 5.89404 2.64252 5.48777 3.0434C5.07423 3.45129 4.84619 3.99594 4.84619 4.57694C4.84619 4.72583 4.96654 4.84617 5.11542 4.84617C5.26431 4.84617 5.38465 4.72583 5.38465 4.57694C5.38465 4.14133 5.55561 3.73263 5.86577 3.42679C6.17619 3.12067 6.58946 2.9516 7.02319 2.96183C7.87423 2.97367 8.60331 3.70275 8.61515 4.55379C8.62296 5.11487 8.34619 5.63125 7.8745 5.93548C7.15835 6.39748 6.73081 7.21379 6.73081 8.11948V8.88463C6.73081 9.03352 6.85115 9.15387 7.00004 9.15387C7.14892 9.15387 7.26927 9.03352 7.26927 8.88463V8.11948C7.26927 7.40817 7.61281 6.74506 8.16635 6.38779C8.795 5.98233 9.16412 5.2939 9.15362 4.54625C9.13746 3.39206 8.18492 2.43952 7.03046 2.42337Z" fill="#888888"/>
</svg>
