<svg width="60" height="50" viewBox="0 0 60 50" fill="none" xmlns="http://www.w3.org/2000/svg">
<path d="M19.2034 22.6597C17.7256 22.2351 16.2478 22.0197 14.8103 22.0197C12.5905 22.0197 10.7383 22.5259 9.30202 23.1458C10.6867 18.0877 14.0129 9.36005 20.639 8.37719C21.2526 8.28613 21.7555 7.84337 21.9229 7.24738L23.3711 2.07875C23.4932 1.64165 23.4208 1.17377 23.171 0.794449C22.9211 0.415123 22.5196 0.16203 22.0696 0.100483C21.5805 0.0339131 21.0821 0 20.588 0C12.6346 0 4.75792 8.28361 1.43417 20.1444C-0.516896 27.1029 -1.089 37.5645 3.71693 44.1493C6.40626 47.8339 10.3298 49.8015 15.3787 49.9981C15.3994 49.9987 15.4196 49.9994 15.4403 49.9994C21.6699 49.9994 27.194 45.813 28.8744 39.8198C29.8783 36.2369 29.4245 32.4794 27.5955 29.237C25.786 26.0309 22.8059 23.694 19.2034 22.6597Z" fill="#EEEEEE"/>
<path d="M58.1989 29.2376C56.3895 26.0309 53.4094 23.694 49.8068 22.6597C48.329 22.2351 46.8513 22.0197 45.4144 22.0197C43.1946 22.0197 41.3417 22.5259 39.9055 23.1458C41.2901 18.0877 44.6163 9.36005 51.2431 8.37719C51.8567 8.28613 52.3589 7.84337 52.527 7.24738L53.9752 2.07875C54.0973 1.64165 54.0249 1.17377 53.775 0.794449C53.5258 0.415123 53.1243 0.16203 52.6736 0.100483C52.1852 0.0339131 51.6868 0 51.1921 0C43.2386 0 35.362 8.28361 32.0376 20.1444C30.0872 27.1029 29.5151 37.5645 34.3216 44.1506C37.0103 47.8346 40.9345 49.8028 45.9827 49.9987C46.0035 49.9994 46.0236 50 46.045 50C52.274 50 57.7987 45.8136 59.4791 39.8204C60.4817 36.2375 60.0273 32.4794 58.1989 29.2376Z" fill="#EEEEEE"/>
</svg>
