<svg width="18" height="18" viewBox="0 0 18 18" fill="none" xmlns="http://www.w3.org/2000/svg">
<path d="M17.8421 17.082L13.4679 12.7078C14.6413 11.3588 15.3517 9.59867 15.3517 7.67494C15.3517 3.44035 11.9074 0 7.67695 0C3.44247 0 0.00219727 3.44435 0.00219727 7.67494C0.00219727 11.9055 3.44646 15.3499 7.67695 15.3499C9.60063 15.3499 11.3607 14.6395 12.7096 13.4661L17.0838 17.8404C17.1876 17.9441 17.3273 18 17.463 18C17.5987 18 17.7383 17.9481 17.8421 17.8404C18.0496 17.6328 18.0496 17.2896 17.8421 17.082ZM1.07578 7.67494C1.07578 4.03503 4.03713 1.07761 7.67296 1.07761C11.3128 1.07761 14.2701 4.03902 14.2701 7.67494C14.2701 11.3109 11.3128 14.2763 7.67296 14.2763C4.03713 14.2763 1.07578 11.3149 1.07578 7.67494Z" fill="#BBBBBB"/>
</svg>
