<svg width="20" height="21" viewBox="0 0 20 21" fill="none" xmlns="http://www.w3.org/2000/svg">
<path d="M19.827 18.9847L14.9656 14.1232C16.2697 12.624 17.0592 10.6678 17.0592 8.52982C17.0592 3.82356 13.2313 0 8.52961 0C3.82346 0 0 3.82799 0 8.52982C0 13.2316 3.8279 17.0596 8.52961 17.0596C10.6676 17.0596 12.6236 16.2701 14.1229 14.966L18.9843 19.8275C19.0996 19.9428 19.2548 20.0049 19.4056 20.0049C19.5564 20.0049 19.7117 19.9473 19.827 19.8275C20.0577 19.5968 20.0577 19.2154 19.827 18.9847ZM1.19317 8.52982C1.19317 4.48448 4.48436 1.19763 8.52517 1.19763C12.5704 1.19763 15.8572 4.48891 15.8572 8.52982C15.8572 12.5707 12.5704 15.8664 8.52517 15.8664C4.48436 15.8664 1.19317 12.5752 1.19317 8.52982Z" fill="#222222"/>
</svg>
