<svg width="21" height="21" viewBox="0 0 21 21" fill="none" xmlns="http://www.w3.org/2000/svg">
<path d="M20.3983 10.259C20.0641 10.259 19.7967 10.5244 19.7967 10.8561V16.2878C19.7967 17.7651 18.5845 18.9638 17.1004 18.9638H3.89962C2.41107 18.9638 1.20331 17.7607 1.20331 16.2878V10.7677C1.20331 10.4359 0.935906 10.1706 0.601655 10.1706C0.267402 10.1706 0 10.4359 0 10.7677V16.2878C0 18.4242 1.75148 20.1581 3.89962 20.1581H17.1004C19.253 20.1581 21 18.4198 21 16.2878V10.8561C21 10.5288 20.7326 10.259 20.3983 10.259Z" fill="#CCCCCC"/>
<path d="M7.09912 5.65888L9.89793 2.88112V14.9962C9.89793 15.3279 10.1654 15.5933 10.4996 15.5933C10.8338 15.5933 11.1012 15.3279 11.1012 14.9962V2.88112L13.9001 5.65888C14.0159 5.77388 14.1719 5.8358 14.3235 5.8358C14.4794 5.8358 14.631 5.7783 14.7468 5.65888C14.983 5.42445 14.983 5.04848 14.7468 4.81405L10.923 1.01897C10.8115 0.908388 10.6556 0.842041 10.4996 0.842041C10.3391 0.842041 10.1876 0.903965 10.0762 1.01897L6.25235 4.81405C6.01614 5.04848 6.01614 5.42445 6.25235 5.65888C6.4841 5.88889 6.86737 5.88889 7.09912 5.65888Z" fill="#CCCCCC"/>
</svg>
